<svg xmlns="http://www.w3.org/2000/svg" xmlns:xlink="http://www.w3.org/1999/xlink" width="500" zoomAndPan="magnify" viewBox="0 0 375 374.999991" height="500" preserveAspectRatio="xMidYMid meet" version="1.0"><defs><g/><clipPath id="9c2b7a86f3"><path d="M 62.933594 79.355469 L 296.183594 79.355469 L 296.183594 311.855469 L 62.933594 311.855469 Z M 62.933594 79.355469 " clip-rule="nonzero"/></clipPath><clipPath id="b15092d4b7"><path d="M 179.492188 79.355469 C 115.117188 79.355469 62.933594 131.339844 62.933594 195.46875 C 62.933594 259.597656 115.117188 311.585938 179.492188 311.585938 C 243.867188 311.585938 296.054688 259.597656 296.054688 195.46875 C 296.054688 131.339844 243.867188 79.355469 179.492188 79.355469 Z M 179.492188 79.355469 " clip-rule="nonzero"/></clipPath><clipPath id="1c444ff719"><path d="M 95.203125 120.640625 L 111.703125 120.640625 L 111.703125 136.390625 L 95.203125 136.390625 Z M 95.203125 120.640625 " clip-rule="nonzero"/></clipPath><clipPath id="1dca6c3f52"><path d="M 247.019531 120.640625 L 263.519531 120.640625 L 263.519531 136.390625 L 247.019531 136.390625 Z M 247.019531 120.640625 " clip-rule="nonzero"/></clipPath><clipPath id="f7d4456083"><path d="M 78 217.097656 L 94.5 217.097656 L 94.5 232.847656 L 78 232.847656 Z M 78 217.097656 " clip-rule="nonzero"/></clipPath><clipPath id="85c33244e3"><path d="M 268.371094 217.097656 L 284.871094 217.097656 L 284.871094 232.847656 L 268.371094 232.847656 Z M 268.371094 217.097656 " clip-rule="nonzero"/></clipPath><clipPath id="6d8fa9678c"><path d="M 97.539062 113.828125 L 261.789062 113.828125 L 261.789062 277.324219 L 97.539062 277.324219 Z M 97.539062 113.828125 " clip-rule="nonzero"/></clipPath><clipPath id="3855e47e45"><path d="M 179.492188 113.828125 C 134.230469 113.828125 97.539062 150.378906 97.539062 195.46875 C 97.539062 240.558594 134.230469 277.113281 179.492188 277.113281 C 224.753906 277.113281 261.449219 240.558594 261.449219 195.46875 C 261.449219 150.378906 224.753906 113.828125 179.492188 113.828125 Z M 179.492188 113.828125 " clip-rule="nonzero"/></clipPath></defs><g clip-path="url(#9c2b7a86f3)"><g clip-path="url(#b15092d4b7)"><path stroke-linecap="butt" transform="matrix(0.75, 0, 0, 0.75, 62.933204, 79.354008)" fill="none" stroke-linejoin="miter" d="M 155.411989 0.00194821 C 69.57865 0.00194821 0.000520244 69.314453 0.000520244 154.819667 C 0.000520244 240.324881 69.57865 309.642594 155.411989 309.642594 C 241.245328 309.642594 310.828666 240.324881 310.828666 154.819667 C 310.828666 69.314453 241.245328 0.00194821 155.411989 0.00194821 Z M 155.411989 0.00194821 " stroke="#000000" stroke-width="2" stroke-opacity="1" stroke-miterlimit="4"/></g></g><g fill="#000000" fill-opacity="1"><g transform="translate(91.389147, 260.917569)"><g><path d="M 2.203125 2.171875 L 1.015625 1 L 10.71875 -8.796875 L 12.828125 -6.703125 L 7.21875 4.234375 L 18.09375 -1.484375 L 20.21875 0.625 L 10.515625 10.421875 L 9.34375 9.265625 L 18.34375 0.1875 L 6.34375 6.296875 L 5.1875 5.140625 L 11.140625 -6.859375 Z M 2.203125 2.171875 "/></g></g></g><g fill="#000000" fill-opacity="1"><g transform="translate(109.648137, 277.57649)"><g><path d="M 1.609375 1.0625 L 0.203125 0.140625 L 12.03125 -8.5625 L 13.609375 -7.53125 L 10.25 6.765625 L 8.84375 5.84375 L 9.6875 2.359375 L 4.484375 -1.078125 Z M 11.890625 -6.625 L 5.765625 -2 L 10.03125 0.828125 Z M 11.890625 -6.625 "/></g></g></g><g fill="#000000" fill-opacity="1"><g transform="translate(127.509591, 288.493281)"><g><path d="M 2.84375 1.203125 L 1.3125 0.5625 L 6.703125 -12.125 L 8.921875 -11.1875 L 9.890625 2.390625 L 14.640625 -8.765625 L 16.15625 -8.125 L 10.765625 4.5625 L 8.53125 3.625 L 7.5625 -9.921875 Z M 2.84375 1.203125 "/></g></g></g><g fill="#000000" fill-opacity="1"><g transform="translate(147.621684, 296.16659)"><g><path d="M 1.890625 0.421875 L 0.25 0.046875 L 8.1875 -12.296875 L 10.015625 -11.890625 L 11.984375 2.671875 L 10.359375 2.296875 L 9.90625 -1.265625 L 3.796875 -2.609375 Z M 8.734375 -10.4375 L 4.65625 -3.953125 L 9.671875 -2.828125 Z M 8.734375 -10.4375 "/></g></g></g><g fill="#000000" fill-opacity="1"><g transform="translate(168.244926, 300.031002)"><g><path d="M 7.40625 0.40625 C 6.269531 0.375 5.296875 0.148438 4.484375 -0.265625 C 3.679688 -0.691406 3.023438 -1.242188 2.515625 -1.921875 C 2.003906 -2.609375 1.632812 -3.375 1.40625 -4.21875 C 1.175781 -5.070312 1.078125 -5.945312 1.109375 -6.84375 C 1.140625 -7.75 1.296875 -8.625 1.578125 -9.46875 C 1.859375 -10.3125 2.269531 -11.054688 2.8125 -11.703125 C 3.351562 -12.359375 4.035156 -12.867188 4.859375 -13.234375 C 5.691406 -13.609375 6.671875 -13.78125 7.796875 -13.75 C 9.335938 -13.707031 10.585938 -13.300781 11.546875 -12.53125 C 12.503906 -11.769531 13.15625 -10.789062 13.5 -9.59375 L 11.640625 -9.65625 C 11.359375 -10.40625 10.882812 -11.019531 10.21875 -11.5 C 9.550781 -11.976562 8.71875 -12.234375 7.71875 -12.265625 C 6.882812 -12.285156 6.160156 -12.148438 5.546875 -11.859375 C 4.929688 -11.578125 4.421875 -11.175781 4.015625 -10.65625 C 3.617188 -10.144531 3.316406 -9.5625 3.109375 -8.90625 C 2.898438 -8.25 2.785156 -7.566406 2.765625 -6.859375 C 2.734375 -5.859375 2.878906 -4.921875 3.203125 -4.046875 C 3.535156 -3.179688 4.050781 -2.476562 4.75 -1.9375 C 5.457031 -1.394531 6.347656 -1.109375 7.421875 -1.078125 C 8.328125 -1.046875 9.113281 -1.195312 9.78125 -1.53125 C 10.457031 -1.875 10.984375 -2.375 11.359375 -3.03125 C 11.742188 -3.6875 11.953125 -4.46875 11.984375 -5.375 L 8.671875 -5.46875 L 8.71875 -6.953125 L 13.65625 -6.8125 L 13.4375 0.390625 L 11.921875 0.359375 L 11.984375 -1.609375 C 11.484375 -0.890625 10.8125 -0.367188 9.96875 -0.046875 C 9.125 0.273438 8.269531 0.425781 7.40625 0.40625 Z M 7.40625 0.40625 "/></g></g></g><g fill="#000000" fill-opacity="1"><g transform="translate(191.207566, 299.784733)"><g><path d="M 10.203125 -1.578125 L 1.40625 -0.21875 L -0.703125 -13.84375 L 8.09375 -15.203125 L 8.328125 -13.71875 L 1.1875 -12.609375 L 1.890625 -8.03125 L 8.203125 -9.015625 L 8.4375 -7.546875 L 2.125 -6.5625 L 2.828125 -1.953125 L 9.96875 -3.0625 Z M 10.203125 -1.578125 "/></g></g></g><g fill="#000000" fill-opacity="1"><g transform="translate(210.475559, 296.23926)"><g><path d="M 2.90625 -1.046875 L 1.34375 -0.484375 L -3.296875 -13.453125 L -0.484375 -14.453125 L 6.953125 -4.671875 L 6.484375 -16.953125 L 9.3125 -17.953125 L 13.953125 -4.984375 L 12.390625 -4.4375 L 8.078125 -16.46875 L 8.421875 -3.015625 L 6.875 -2.453125 L -1.375 -13 Z M 2.90625 -1.046875 "/></g></g></g><g fill="#000000" fill-opacity="1"><g transform="translate(233.330403, 286.95141)"><g><path d="M 8.890625 -5.25 L 1.21875 -0.71875 L -5.796875 -12.578125 L 1.875 -17.109375 L 2.640625 -15.828125 L -3.59375 -12.15625 L -1.234375 -8.171875 L 4.28125 -11.421875 L 5.03125 -10.140625 L -0.484375 -6.890625 L 1.890625 -2.875 L 8.125 -6.546875 Z M 8.890625 -5.25 "/></g></g></g><g fill="#000000" fill-opacity="1"><g transform="translate(249.764886, 276.481779)"><g><path d="M 2.34375 -2.015625 L 1.078125 -0.921875 L -7.90625 -11.375 L -6.0625 -12.953125 L 6.546875 -7.796875 L -1.359375 -17 L -0.125 -18.078125 L 8.859375 -7.625 L 7.03125 -6.046875 L -5.53125 -11.171875 Z M 2.34375 -2.015625 "/></g></g></g><g fill="#000000" fill-opacity="1"><g transform="translate(265.517203, 261.859761)"><g><path d="M 4.15625 -5.109375 L 3.09375 -3.8125 L -6.4375 -11.5625 L -9.375 -7.9375 L -10.53125 -8.875 L -3.59375 -17.421875 L -2.4375 -16.484375 L -5.375 -12.859375 Z M 4.15625 -5.109375 "/></g></g></g><g clip-path="url(#1c444ff719)"><path fill="#4d4d4d" d="M 111.441406 126.652344 C 111.394531 126.511719 111.265625 126.417969 111.121094 126.417969 L 105.40625 126.429688 L 103.652344 120.992188 C 103.609375 120.855469 103.476562 120.757812 103.332031 120.757812 C 103.183594 120.757812 103.054688 120.855469 103.007812 120.992188 L 101.253906 126.429688 L 95.542969 126.417969 C 95.394531 126.417969 95.265625 126.511719 95.21875 126.652344 C 95.175781 126.792969 95.222656 126.945312 95.34375 127.03125 L 99.972656 130.378906 L 98.195312 135.808594 C 98.148438 135.945312 98.199219 136.101562 98.316406 136.1875 C 98.4375 136.273438 98.597656 136.273438 98.714844 136.1875 L 103.328125 132.820312 L 107.945312 136.1875 C 108.003906 136.230469 108.074219 136.25 108.144531 136.25 C 108.214844 136.25 108.285156 136.230469 108.34375 136.1875 C 108.460938 136.101562 108.511719 135.945312 108.464844 135.808594 L 106.691406 130.378906 L 111.316406 127.03125 C 111.4375 126.945312 111.484375 126.792969 111.441406 126.652344 Z M 111.441406 126.652344 " fill-opacity="1" fill-rule="evenodd"/></g><g clip-path="url(#1dca6c3f52)"><path fill="#4d4d4d" d="M 263.257812 126.652344 C 263.214844 126.511719 263.082031 126.417969 262.9375 126.417969 L 257.222656 126.429688 L 255.46875 120.992188 C 255.425781 120.855469 255.296875 120.757812 255.148438 120.757812 C 255 120.757812 254.871094 120.855469 254.824219 120.992188 L 253.070312 126.429688 L 247.359375 126.417969 C 247.210938 126.417969 247.082031 126.511719 247.039062 126.652344 C 246.992188 126.792969 247.039062 126.945312 247.160156 127.03125 L 251.789062 130.378906 L 250.011719 135.808594 C 249.964844 135.945312 250.015625 136.101562 250.132812 136.1875 C 250.253906 136.273438 250.414062 136.273438 250.53125 136.1875 L 255.148438 132.820312 L 259.761719 136.1875 C 259.820312 136.230469 259.890625 136.25 259.960938 136.25 C 260.03125 136.25 260.101562 136.230469 260.160156 136.1875 C 260.277344 136.101562 260.328125 135.945312 260.28125 135.808594 L 258.507812 130.378906 L 263.132812 127.03125 C 263.253906 126.945312 263.300781 126.792969 263.257812 126.652344 Z M 263.257812 126.652344 " fill-opacity="1" fill-rule="evenodd"/></g><g clip-path="url(#f7d4456083)"><path fill="#4d4d4d" d="M 94.238281 223.109375 C 94.191406 222.96875 94.0625 222.875 93.914062 222.875 L 88.203125 222.886719 L 86.449219 217.449219 C 86.402344 217.3125 86.273438 217.214844 86.125 217.214844 C 85.980469 217.214844 85.847656 217.3125 85.804688 217.449219 L 84.050781 222.886719 L 78.339844 222.875 L 78.335938 222.875 C 78.191406 222.875 78.058594 222.96875 78.015625 223.109375 C 77.96875 223.246094 78.019531 223.402344 78.136719 223.488281 L 82.765625 226.835938 L 80.988281 232.265625 C 80.945312 232.402344 80.992188 232.554688 81.113281 232.644531 C 81.230469 232.730469 81.394531 232.730469 81.511719 232.640625 L 86.125 229.277344 L 90.742188 232.640625 C 90.800781 232.6875 90.871094 232.707031 90.9375 232.707031 C 91.007812 232.707031 91.078125 232.6875 91.140625 232.644531 C 91.257812 232.558594 91.308594 232.402344 91.261719 232.265625 L 89.484375 226.835938 L 94.113281 223.488281 C 94.230469 223.402344 94.28125 223.25 94.234375 223.109375 Z M 94.238281 223.109375 " fill-opacity="1" fill-rule="evenodd"/></g><g clip-path="url(#85c33244e3)"><path fill="#4d4d4d" d="M 284.609375 223.109375 C 284.5625 222.96875 284.433594 222.875 284.285156 222.875 L 278.574219 222.886719 L 276.820312 217.449219 C 276.777344 217.3125 276.644531 217.214844 276.5 217.214844 C 276.351562 217.214844 276.222656 217.3125 276.175781 217.449219 L 274.421875 222.886719 L 268.710938 222.875 L 268.707031 222.875 C 268.5625 222.875 268.433594 222.96875 268.386719 223.109375 C 268.34375 223.246094 268.390625 223.402344 268.511719 223.488281 L 273.136719 226.835938 L 271.363281 232.265625 C 271.316406 232.402344 271.367188 232.554688 271.484375 232.644531 C 271.605469 232.730469 271.765625 232.730469 271.882812 232.640625 L 276.496094 229.277344 L 281.113281 232.640625 C 281.171875 232.6875 281.242188 232.707031 281.3125 232.707031 C 281.382812 232.707031 281.453125 232.6875 281.511719 232.644531 C 281.628906 232.558594 281.679688 232.402344 281.632812 232.265625 L 279.859375 226.835938 L 284.484375 223.488281 C 284.605469 223.402344 284.652344 223.25 284.609375 223.109375 Z M 284.609375 223.109375 " fill-opacity="1" fill-rule="evenodd"/></g><g clip-path="url(#6d8fa9678c)"><g clip-path="url(#3855e47e45)"><path stroke-linecap="butt" transform="matrix(0.75, 0, 0, 0.75, 97.537316, 113.828445)" fill="none" stroke-linejoin="miter" d="M 109.27317 -0.0004271 C 48.924207 -0.0004271 0.00232907 48.733951 0.00232907 108.853747 C 0.00232907 168.973542 48.924207 217.713129 109.27317 217.713129 C 169.622132 217.713129 218.549218 168.973542 218.549218 108.853747 C 218.549218 48.733951 169.622132 -0.0004271 109.27317 -0.0004271 Z M 109.27317 -0.0004271 " stroke="#000000" stroke-width="2" stroke-opacity="1" stroke-miterlimit="4"/></g></g><g fill="#000000" fill-opacity="1"><g transform="translate(267.830243, 150.111067)"><g><path d="M 1.078125 6.859375 L 0.796875 5.140625 L 5.984375 4.328125 L 13.546875 -2.03125 L 13.84375 -0.140625 L 7.734375 4.890625 L 15.09375 7.890625 L 15.390625 9.765625 L 6.265625 6.046875 Z M 1.078125 6.859375 "/></g></g></g><g fill="#000000" fill-opacity="1"><g transform="translate(270.416996, 168.504746)"><g><path d="M 0.15625 7.265625 C 0.113281 6.191406 0.257812 5.242188 0.59375 4.421875 C 0.9375 3.609375 1.421875 2.921875 2.046875 2.359375 C 2.679688 1.804688 3.414062 1.378906 4.25 1.078125 C 5.082031 0.785156 5.96875 0.617188 6.90625 0.578125 C 7.832031 0.535156 8.722656 0.625 9.578125 0.84375 C 10.429688 1.0625 11.195312 1.414062 11.875 1.90625 C 12.550781 2.40625 13.09375 3.046875 13.5 3.828125 C 13.914062 4.609375 14.144531 5.535156 14.1875 6.609375 C 14.238281 7.691406 14.09375 8.640625 13.75 9.453125 C 13.414062 10.273438 12.9375 10.960938 12.3125 11.515625 C 11.6875 12.078125 10.957031 12.503906 10.125 12.796875 C 9.289062 13.097656 8.410156 13.269531 7.484375 13.3125 C 6.546875 13.351562 5.648438 13.265625 4.796875 13.046875 C 3.941406 12.828125 3.171875 12.46875 2.484375 11.96875 C 1.804688 11.476562 1.257812 10.84375 0.84375 10.0625 C 0.4375 9.28125 0.207031 8.347656 0.15625 7.265625 Z M 1.640625 7.1875 C 1.691406 8.207031 1.972656 9.0625 2.484375 9.75 C 2.992188 10.4375 3.675781 10.9375 4.53125 11.25 C 5.382812 11.570312 6.34375 11.710938 7.40625 11.671875 C 8.457031 11.617188 9.390625 11.394531 10.203125 11 C 11.023438 10.601562 11.660156 10.035156 12.109375 9.296875 C 12.554688 8.566406 12.753906 7.691406 12.703125 6.671875 C 12.660156 5.671875 12.382812 4.832031 11.875 4.15625 C 11.363281 3.476562 10.679688 2.972656 9.828125 2.640625 C 8.984375 2.316406 8.035156 2.179688 6.984375 2.234375 C 5.921875 2.273438 4.976562 2.5 4.15625 2.90625 C 3.332031 3.3125 2.695312 3.875 2.25 4.59375 C 1.800781 5.320312 1.597656 6.1875 1.640625 7.1875 Z M 1.640625 7.1875 "/></g></g></g><g fill="#000000" fill-opacity="1"><g transform="translate(270.980142, 189.514165)"><g><path d="M -0.578125 6.34375 C -0.472656 4.601562 0.0390625 3.351562 0.96875 2.59375 C 1.90625 1.832031 3.128906 1.503906 4.640625 1.609375 L 13.59375 2.1875 L 13.484375 3.828125 L 4.53125 3.25 C 3.476562 3.175781 2.625 3.390625 1.96875 3.890625 C 1.320312 4.390625 0.960938 5.238281 0.890625 6.4375 C 0.804688 7.632812 1.054688 8.523438 1.640625 9.109375 C 2.222656 9.691406 3.039062 10.019531 4.09375 10.09375 L 13.046875 10.671875 L 12.9375 12.3125 L 3.984375 11.734375 C 2.472656 11.628906 1.304688 11.140625 0.484375 10.265625 C -0.335938 9.390625 -0.691406 8.082031 -0.578125 6.34375 Z M -0.578125 6.34375 "/></g></g></g><g fill="#000000" fill-opacity="1"><g transform="translate(132.499101, 113.514374)"><g><path d="M 1.828125 -0.609375 L 0.234375 -0.078125 L 0.71875 -14.703125 L 2.5 -15.296875 L 11.609375 -3.859375 L 10.015625 -3.328125 L 7.8125 -6.140625 L 1.90625 -4.171875 Z M 2.140625 -13.40625 L 1.96875 -5.75 L 6.8125 -7.375 Z M 2.140625 -13.40625 "/></g></g></g><g fill="#000000" fill-opacity="1"><g transform="translate(150.323186, 107.959516)"><g><path d="M 3.046875 -0.484375 L 1.40625 -0.21875 L -0.765625 -13.78125 L 2.15625 -14.265625 L 7.640625 -3.296875 L 9.4375 -15.421875 L 12.40625 -15.90625 L 14.578125 -2.34375 L 12.9375 -2.078125 L 10.921875 -14.671875 L 8.796875 -1.40625 L 7.171875 -1.15625 L 1.03125 -12.984375 Z M 3.046875 -0.484375 "/></g></g></g><g fill="#000000" fill-opacity="1"><g transform="translate(172.424556, 105.000247)"><g><path d="M 7.265625 0.265625 C 6.191406 0.253906 5.257812 0.0546875 4.46875 -0.328125 C 3.675781 -0.722656 3.015625 -1.253906 2.484375 -1.921875 C 1.960938 -2.585938 1.578125 -3.34375 1.328125 -4.1875 C 1.085938 -5.03125 0.96875 -5.921875 0.96875 -6.859375 C 0.976562 -7.796875 1.113281 -8.6875 1.375 -9.53125 C 1.644531 -10.375 2.046875 -11.117188 2.578125 -11.765625 C 3.117188 -12.421875 3.789062 -12.929688 4.59375 -13.296875 C 5.394531 -13.660156 6.332031 -13.835938 7.40625 -13.828125 C 8.5 -13.816406 9.445312 -13.617188 10.25 -13.234375 C 11.050781 -12.859375 11.710938 -12.335938 12.234375 -11.671875 C 12.753906 -11.015625 13.140625 -10.257812 13.390625 -9.40625 C 13.640625 -8.5625 13.757812 -7.671875 13.75 -6.734375 C 13.75 -5.796875 13.613281 -4.90625 13.34375 -4.0625 C 13.070312 -3.226562 12.671875 -2.484375 12.140625 -1.828125 C 11.609375 -1.171875 10.9375 -0.65625 10.125 -0.28125 C 9.3125 0.09375 8.359375 0.273438 7.265625 0.265625 Z M 7.28125 -1.234375 C 8.3125 -1.222656 9.179688 -1.453125 9.890625 -1.921875 C 10.609375 -2.398438 11.148438 -3.054688 11.515625 -3.890625 C 11.890625 -4.734375 12.082031 -5.6875 12.09375 -6.75 C 12.101562 -7.820312 11.929688 -8.773438 11.578125 -9.609375 C 11.222656 -10.453125 10.691406 -11.113281 9.984375 -11.59375 C 9.285156 -12.082031 8.421875 -12.332031 7.390625 -12.34375 C 6.390625 -12.351562 5.535156 -12.125 4.828125 -11.65625 C 4.117188 -11.1875 3.578125 -10.535156 3.203125 -9.703125 C 2.828125 -8.867188 2.632812 -7.914062 2.625 -6.84375 C 2.613281 -5.78125 2.785156 -4.828125 3.140625 -3.984375 C 3.503906 -3.140625 4.035156 -2.472656 4.734375 -1.984375 C 5.429688 -1.492188 6.28125 -1.242188 7.28125 -1.234375 Z M 7.28125 -1.234375 "/></g></g></g><g fill="#000000" fill-opacity="1"><g transform="translate(193.196353, 105.756611)"><g><path d="M 3.03125 0.515625 L 1.40625 0.234375 L 3.703125 -13.3125 L 6.078125 -12.90625 L 10.15625 0.03125 L 12.171875 -11.875 L 13.78125 -11.609375 L 11.484375 1.9375 L 9.109375 1.546875 L 5.046875 -11.359375 Z M 3.03125 0.515625 "/></g></g></g><g fill="#000000" fill-opacity="1"><g transform="translate(212.130614, 109.401772)"><g><path d="M 6.921875 2.53125 C 5.859375 2.164062 5 1.664062 4.34375 1.03125 C 3.695312 0.40625 3.226562 -0.300781 2.9375 -1.09375 C 2.65625 -1.894531 2.53125 -2.734375 2.5625 -3.609375 C 2.601562 -4.484375 2.765625 -5.347656 3.046875 -6.203125 C 3.335938 -7.046875 3.738281 -7.832031 4.25 -8.5625 C 4.757812 -9.289062 5.367188 -9.882812 6.078125 -10.34375 C 6.785156 -10.8125 7.585938 -11.097656 8.484375 -11.203125 C 9.378906 -11.304688 10.351562 -11.175781 11.40625 -10.8125 C 12.875 -10.320312 13.953125 -9.578125 14.640625 -8.578125 C 15.335938 -7.578125 15.675781 -6.460938 15.65625 -5.234375 L 13.890625 -5.828125 C 13.847656 -6.617188 13.570312 -7.335938 13.0625 -7.984375 C 12.5625 -8.640625 11.84375 -9.125 10.90625 -9.4375 C 10.113281 -9.707031 9.382812 -9.789062 8.71875 -9.6875 C 8.0625 -9.59375 7.46875 -9.359375 6.9375 -8.984375 C 6.40625 -8.617188 5.941406 -8.148438 5.546875 -7.578125 C 5.160156 -7.015625 4.851562 -6.398438 4.625 -5.734375 C 4.3125 -4.796875 4.1875 -3.859375 4.25 -2.921875 C 4.3125 -1.992188 4.597656 -1.171875 5.109375 -0.453125 C 5.628906 0.253906 6.390625 0.78125 7.390625 1.125 C 8.253906 1.40625 9.050781 1.484375 9.78125 1.359375 C 10.507812 1.242188 11.148438 0.929688 11.703125 0.421875 C 12.253906 -0.0859375 12.675781 -0.773438 12.96875 -1.640625 L 9.875 -2.6875 L 10.34375 -4.09375 L 14.984375 -2.53125 L 12.6875 4.28125 L 11.25 3.796875 L 11.875 1.9375 C 11.195312 2.476562 10.40625 2.78125 9.5 2.84375 C 8.601562 2.90625 7.742188 2.800781 6.921875 2.53125 Z M 6.921875 2.53125 "/></g></g></g><g fill="#000000" fill-opacity="1"><g transform="translate(231.69053, 116.745269)"><g/></g></g><g fill="#000000" fill-opacity="1"><g transform="translate(90.33296, 207.63231)"><g><path d="M 0.078125 -7.25 C 0.0976562 -6.175781 -0.0703125 -5.238281 -0.4375 -4.4375 C -0.800781 -3.632812 -1.304688 -2.96875 -1.953125 -2.4375 C -2.609375 -1.90625 -3.359375 -1.503906 -4.203125 -1.234375 C -5.046875 -0.960938 -5.9375 -0.820312 -6.875 -0.8125 C -7.8125 -0.800781 -8.703125 -0.921875 -9.546875 -1.171875 C -10.390625 -1.421875 -11.140625 -1.800781 -11.796875 -2.3125 C -12.453125 -2.832031 -12.972656 -3.488281 -13.359375 -4.28125 C -13.742188 -5.070312 -13.945312 -6.003906 -13.96875 -7.078125 C -13.976562 -8.171875 -13.800781 -9.117188 -13.4375 -9.921875 C -13.070312 -10.734375 -12.566406 -11.40625 -11.921875 -11.9375 C -11.273438 -12.476562 -10.53125 -12.878906 -9.6875 -13.140625 C -8.84375 -13.410156 -7.953125 -13.550781 -7.015625 -13.5625 C -6.078125 -13.570312 -5.1875 -13.453125 -4.34375 -13.203125 C -3.5 -12.960938 -2.742188 -12.582031 -2.078125 -12.0625 C -1.421875 -11.539062 -0.898438 -10.878906 -0.515625 -10.078125 C -0.128906 -9.285156 0.0664062 -8.34375 0.078125 -7.25 Z M -1.40625 -7.234375 C -1.414062 -8.265625 -1.660156 -9.128906 -2.140625 -9.828125 C -2.628906 -10.535156 -3.296875 -11.0625 -4.140625 -11.40625 C -4.984375 -11.757812 -5.9375 -11.929688 -7 -11.921875 C -8.0625 -11.910156 -9.003906 -11.71875 -9.828125 -11.34375 C -10.660156 -10.976562 -11.3125 -10.4375 -11.78125 -9.71875 C -12.257812 -9.007812 -12.492188 -8.140625 -12.484375 -7.109375 C -12.460938 -6.109375 -12.207031 -5.257812 -11.71875 -4.5625 C -11.238281 -3.863281 -10.578125 -3.335938 -9.734375 -2.984375 C -8.898438 -2.628906 -7.953125 -2.457031 -6.890625 -2.46875 C -5.828125 -2.476562 -4.878906 -2.671875 -4.046875 -3.046875 C -3.210938 -3.421875 -2.554688 -3.960938 -2.078125 -4.671875 C -1.609375 -5.378906 -1.382812 -6.234375 -1.40625 -7.234375 Z M -1.40625 -7.234375 "/></g></g></g><g fill="#000000" fill-opacity="1"><g transform="translate(90.544538, 186.737452)"><g><path d="M 0.359375 -3.046875 L 0.171875 -1.40625 L -13.4375 -3.015625 L -13.15625 -5.40625 L -0.46875 -10.109375 L -12.4375 -11.53125 L -12.25 -13.140625 L 1.359375 -11.53125 L 1.078125 -9.140625 L -11.578125 -4.453125 Z M 0.359375 -3.046875 "/></g></g></g><g fill="#000000" fill-opacity="1"><g transform="translate(93.265578, 167.472689)"><g><path d="M 2.40625 -9.984375 L 0.328125 -1.375 L -13 -4.578125 L -10.921875 -13.1875 L -9.453125 -12.84375 L -11.140625 -5.84375 L -6.671875 -4.765625 L -5.1875 -10.9375 L -3.765625 -10.59375 L -5.25 -4.421875 L -0.71875 -3.328125 L 0.96875 -10.328125 Z M 2.40625 -9.984375 "/></g></g></g><g fill="#000000" fill-opacity="1"><g transform="translate(97.831152, 150.454632)"><g/></g></g><g fill="#000000" fill-opacity="1"><g transform="translate(140.378799, 238.746474)"><g><path d="M 9.734375 -3.265625 L 9.796875 -3.234375 L 8.96875 0 L 8.890625 0.34375 L 8.359375 0 L 0.234375 0 L 0.234375 -0.078125 C 0.546875 -0.191406 0.816406 -0.332031 1.046875 -0.5 C 1.273438 -0.675781 1.390625 -0.90625 1.390625 -1.1875 L 1.390625 -9.859375 C 1.390625 -10.140625 1.273438 -10.332031 1.046875 -10.4375 C 0.816406 -10.550781 0.546875 -10.625 0.234375 -10.65625 L 0.234375 -10.734375 L 8.671875 -10.734375 L 9.234375 -8.046875 L 9.171875 -8.015625 C 8.785156 -8.585938 8.429688 -9.054688 8.109375 -9.421875 C 7.796875 -9.785156 7.4375 -10.054688 7.03125 -10.234375 C 6.625 -10.410156 6.09375 -10.5 5.4375 -10.5 L 3.5 -10.5 L 3.5 -5.5 L 4.78125 -5.5 C 5.414062 -5.5 5.929688 -5.550781 6.328125 -5.65625 C 6.722656 -5.757812 7.03125 -5.941406 7.25 -6.203125 C 7.476562 -6.472656 7.65625 -6.84375 7.78125 -7.3125 L 7.78125 -3.4375 C 7.65625 -3.90625 7.476562 -4.269531 7.25 -4.53125 C 7.03125 -4.789062 6.722656 -4.972656 6.328125 -5.078125 C 5.929688 -5.191406 5.414062 -5.25 4.78125 -5.25 L 3.5 -5.25 L 3.5 -0.25 L 5.53125 -0.25 C 6.1875 -0.25 6.75 -0.359375 7.21875 -0.578125 C 7.695312 -0.796875 8.128906 -1.125 8.515625 -1.5625 C 8.898438 -2.007812 9.304688 -2.578125 9.734375 -3.265625 Z M 9.734375 -3.265625 "/></g></g></g><g fill="#000000" fill-opacity="1"><g transform="translate(152.536122, 238.746474)"><g><path d="M 5.40625 -6.40625 C 6.15625 -6.238281 6.769531 -6.023438 7.25 -5.765625 C 7.726562 -5.515625 8.09375 -5.234375 8.34375 -4.921875 C 8.601562 -4.617188 8.78125 -4.3125 8.875 -4 C 8.96875 -3.6875 9.015625 -3.382812 9.015625 -3.09375 C 9.015625 -2.46875 8.847656 -1.90625 8.515625 -1.40625 C 8.179688 -0.90625 7.695312 -0.507812 7.0625 -0.21875 C 6.425781 0.0703125 5.65625 0.21875 4.75 0.21875 C 3.820312 0.21875 3.003906 0.078125 2.296875 -0.203125 C 1.597656 -0.484375 1.035156 -0.828125 0.609375 -1.234375 L 2.03125 -3.46875 C 1.976562 -2.9375 2.039062 -2.457031 2.21875 -2.03125 C 2.394531 -1.601562 2.644531 -1.238281 2.96875 -0.9375 C 3.300781 -0.644531 3.675781 -0.421875 4.09375 -0.265625 C 4.507812 -0.109375 4.9375 -0.03125 5.375 -0.03125 C 5.820312 -0.03125 6.1875 -0.0976562 6.46875 -0.234375 C 6.75 -0.378906 6.960938 -0.5625 7.109375 -0.78125 C 7.265625 -1.007812 7.375 -1.242188 7.4375 -1.484375 C 7.5 -1.734375 7.53125 -1.957031 7.53125 -2.15625 C 7.53125 -2.625 7.421875 -2.988281 7.203125 -3.25 C 6.984375 -3.507812 6.660156 -3.71875 6.234375 -3.875 C 5.804688 -4.039062 5.289062 -4.195312 4.6875 -4.34375 C 3.6875 -4.570312 2.910156 -4.878906 2.359375 -5.265625 C 1.816406 -5.660156 1.4375 -6.085938 1.21875 -6.546875 C 1 -7.015625 0.890625 -7.46875 0.890625 -7.90625 C 0.890625 -8.539062 1.054688 -9.082031 1.390625 -9.53125 C 1.734375 -9.988281 2.207031 -10.335938 2.8125 -10.578125 C 3.425781 -10.828125 4.144531 -10.953125 4.96875 -10.953125 C 5.863281 -10.953125 6.628906 -10.816406 7.265625 -10.546875 C 7.898438 -10.273438 8.425781 -9.945312 8.84375 -9.5625 L 7.375 -7.3125 C 7.445312 -7.832031 7.40625 -8.300781 7.25 -8.71875 C 7.09375 -9.144531 6.859375 -9.503906 6.546875 -9.796875 C 6.242188 -10.097656 5.890625 -10.328125 5.484375 -10.484375 C 5.078125 -10.640625 4.664062 -10.71875 4.25 -10.71875 C 3.769531 -10.71875 3.394531 -10.625 3.125 -10.4375 C 2.851562 -10.25 2.664062 -10.007812 2.5625 -9.71875 C 2.457031 -9.4375 2.40625 -9.15625 2.40625 -8.875 C 2.40625 -8.34375 2.539062 -7.914062 2.8125 -7.59375 C 3.09375 -7.28125 3.460938 -7.035156 3.921875 -6.859375 C 4.378906 -6.679688 4.875 -6.53125 5.40625 -6.40625 Z M 5.40625 -6.40625 "/></g></g></g><g fill="#000000" fill-opacity="1"><g transform="translate(164.310239, 238.746474)"><g><path d="M 10.703125 -10.734375 L 9.734375 -7.578125 L 9.671875 -7.578125 C 9.742188 -8.273438 9.671875 -8.835938 9.453125 -9.265625 C 9.234375 -9.691406 8.910156 -10.003906 8.484375 -10.203125 C 8.054688 -10.410156 7.554688 -10.515625 6.984375 -10.515625 L 6.390625 -10.515625 L 6.390625 -1.03125 C 6.390625 -0.675781 6.519531 -0.4375 6.78125 -0.3125 C 7.039062 -0.195312 7.40625 -0.117188 7.875 -0.078125 L 7.875 0 L 2.828125 0 L 2.828125 -0.078125 C 3.296875 -0.117188 3.65625 -0.195312 3.90625 -0.3125 C 4.164062 -0.4375 4.296875 -0.675781 4.296875 -1.03125 L 4.296875 -10.515625 C 3.535156 -10.515625 2.90625 -10.410156 2.40625 -10.203125 C 1.914062 -9.992188 1.5 -9.675781 1.15625 -9.25 C 0.820312 -8.832031 0.507812 -8.273438 0.21875 -7.578125 L 0.15625 -7.578125 L 0.65625 -10.734375 Z M 10.703125 -10.734375 "/></g></g></g><g fill="#000000" fill-opacity="1"><g transform="translate(177.310615, 238.746474)"><g><path d="M 1.921875 0.109375 C 1.609375 0.109375 1.335938 0 1.109375 -0.21875 C 0.878906 -0.4375 0.765625 -0.710938 0.765625 -1.046875 C 0.765625 -1.347656 0.878906 -1.601562 1.109375 -1.8125 C 1.335938 -2.019531 1.609375 -2.125 1.921875 -2.125 C 2.210938 -2.125 2.46875 -2.019531 2.6875 -1.8125 C 2.914062 -1.601562 3.03125 -1.347656 3.03125 -1.046875 C 3.03125 -0.710938 2.914062 -0.4375 2.6875 -0.21875 C 2.46875 0 2.210938 0.109375 1.921875 0.109375 Z M 1.921875 0.109375 "/></g></g></g><g fill="#000000" fill-opacity="1"><g transform="translate(183.260054, 238.746474)"><g/></g></g><g fill="#000000" fill-opacity="1"><g transform="translate(188.473742, 238.746474)"><g><path d="M 8.84375 -3.78125 L 8.921875 -3.75 L 8.34375 0.34375 L 7.796875 0 L 1.046875 0 L 0.84375 -1.171875 L 2.5 -2.34375 C 3.25 -2.875 3.929688 -3.425781 4.546875 -4 C 5.171875 -4.570312 5.664062 -5.175781 6.03125 -5.8125 C 6.394531 -6.457031 6.578125 -7.148438 6.578125 -7.890625 C 6.578125 -8.316406 6.5 -8.738281 6.34375 -9.15625 C 6.195312 -9.582031 5.957031 -9.9375 5.625 -10.21875 C 5.300781 -10.507812 4.875 -10.65625 4.34375 -10.65625 C 3.84375 -10.644531 3.429688 -10.503906 3.109375 -10.234375 C 2.796875 -9.960938 2.5625 -9.613281 2.40625 -9.1875 C 2.25 -8.757812 2.171875 -8.296875 2.171875 -7.796875 C 2.179688 -7.304688 2.253906 -6.820312 2.390625 -6.34375 L 2.34375 -6.34375 L 0.609375 -9.15625 C 0.867188 -9.40625 1.21875 -9.671875 1.65625 -9.953125 C 2.09375 -10.234375 2.609375 -10.46875 3.203125 -10.65625 C 3.804688 -10.851562 4.472656 -10.953125 5.203125 -10.953125 C 6.234375 -10.953125 7.050781 -10.726562 7.65625 -10.28125 C 8.257812 -9.84375 8.5625 -9.226562 8.5625 -8.4375 C 8.5625 -7.820312 8.382812 -7.242188 8.03125 -6.703125 C 7.6875 -6.171875 7.222656 -5.65625 6.640625 -5.15625 C 6.066406 -4.65625 5.4375 -4.160156 4.75 -3.671875 C 4.070312 -3.179688 3.394531 -2.675781 2.71875 -2.15625 L 2.046875 -1.65625 L 5.78125 -1.671875 C 6.332031 -1.679688 6.78125 -1.71875 7.125 -1.78125 C 7.46875 -1.84375 7.738281 -1.945312 7.9375 -2.09375 C 8.144531 -2.238281 8.3125 -2.445312 8.4375 -2.71875 C 8.570312 -2.988281 8.707031 -3.34375 8.84375 -3.78125 Z M 8.84375 -3.78125 "/></g></g></g><g fill="#000000" fill-opacity="1"><g transform="translate(200.29384, 238.746474)"><g><path d="M 5.3125 -10.953125 C 6.207031 -10.953125 7 -10.738281 7.6875 -10.3125 C 8.375 -9.882812 8.910156 -9.253906 9.296875 -8.421875 C 9.679688 -7.585938 9.875 -6.566406 9.875 -5.359375 C 9.875 -4.160156 9.679688 -3.144531 9.296875 -2.3125 C 8.910156 -1.488281 8.367188 -0.859375 7.671875 -0.421875 C 6.984375 0.00390625 6.191406 0.21875 5.296875 0.21875 C 4.390625 0.21875 3.585938 0 2.890625 -0.4375 C 2.203125 -0.875 1.660156 -1.507812 1.265625 -2.34375 C 0.878906 -3.175781 0.6875 -4.191406 0.6875 -5.390625 C 0.6875 -6.597656 0.878906 -7.613281 1.265625 -8.4375 C 1.660156 -9.257812 2.203125 -9.882812 2.890625 -10.3125 C 3.585938 -10.738281 4.394531 -10.953125 5.3125 -10.953125 Z M 5.984375 -0.046875 C 6.617188 -0.046875 7.097656 -0.375 7.421875 -1.03125 C 7.753906 -1.695312 7.921875 -2.628906 7.921875 -3.828125 C 7.921875 -4.441406 7.875 -5.070312 7.78125 -5.71875 C 7.6875 -6.363281 7.546875 -6.984375 7.359375 -7.578125 C 7.179688 -8.171875 6.957031 -8.703125 6.6875 -9.171875 C 6.425781 -9.640625 6.117188 -10.007812 5.765625 -10.28125 C 5.410156 -10.550781 5.019531 -10.6875 4.59375 -10.6875 C 3.96875 -10.6875 3.488281 -10.363281 3.15625 -9.71875 C 2.820312 -9.070312 2.65625 -8.15625 2.65625 -6.96875 C 2.65625 -6.34375 2.703125 -5.703125 2.796875 -5.046875 C 2.890625 -4.398438 3.023438 -3.773438 3.203125 -3.171875 C 3.390625 -2.578125 3.613281 -2.046875 3.875 -1.578125 C 4.144531 -1.109375 4.457031 -0.734375 4.8125 -0.453125 C 5.164062 -0.179688 5.554688 -0.046875 5.984375 -0.046875 Z M 5.984375 -0.046875 "/></g></g></g><g fill="#000000" fill-opacity="1"><g transform="translate(213.002973, 238.746474)"><g><path d="M 8.84375 -3.78125 L 8.921875 -3.75 L 8.34375 0.34375 L 7.796875 0 L 1.046875 0 L 0.84375 -1.171875 L 2.5 -2.34375 C 3.25 -2.875 3.929688 -3.425781 4.546875 -4 C 5.171875 -4.570312 5.664062 -5.175781 6.03125 -5.8125 C 6.394531 -6.457031 6.578125 -7.148438 6.578125 -7.890625 C 6.578125 -8.316406 6.5 -8.738281 6.34375 -9.15625 C 6.195312 -9.582031 5.957031 -9.9375 5.625 -10.21875 C 5.300781 -10.507812 4.875 -10.65625 4.34375 -10.65625 C 3.84375 -10.644531 3.429688 -10.503906 3.109375 -10.234375 C 2.796875 -9.960938 2.5625 -9.613281 2.40625 -9.1875 C 2.25 -8.757812 2.171875 -8.296875 2.171875 -7.796875 C 2.179688 -7.304688 2.253906 -6.820312 2.390625 -6.34375 L 2.34375 -6.34375 L 0.609375 -9.15625 C 0.867188 -9.40625 1.21875 -9.671875 1.65625 -9.953125 C 2.09375 -10.234375 2.609375 -10.46875 3.203125 -10.65625 C 3.804688 -10.851562 4.472656 -10.953125 5.203125 -10.953125 C 6.234375 -10.953125 7.050781 -10.726562 7.65625 -10.28125 C 8.257812 -9.84375 8.5625 -9.226562 8.5625 -8.4375 C 8.5625 -7.820312 8.382812 -7.242188 8.03125 -6.703125 C 7.6875 -6.171875 7.222656 -5.65625 6.640625 -5.15625 C 6.066406 -4.65625 5.4375 -4.160156 4.75 -3.671875 C 4.070312 -3.179688 3.394531 -2.675781 2.71875 -2.15625 L 2.046875 -1.65625 L 5.78125 -1.671875 C 6.332031 -1.679688 6.78125 -1.71875 7.125 -1.78125 C 7.46875 -1.84375 7.738281 -1.945312 7.9375 -2.09375 C 8.144531 -2.238281 8.3125 -2.445312 8.4375 -2.71875 C 8.570312 -2.988281 8.707031 -3.34375 8.84375 -3.78125 Z M 8.84375 -3.78125 "/></g></g></g><g fill="#000000" fill-opacity="1"><g transform="translate(224.823071, 238.746474)"><g><path d="M 8.296875 -2.78125 C 8.140625 -2.789062 7.972656 -2.796875 7.796875 -2.796875 C 7.628906 -2.796875 7.460938 -2.800781 7.296875 -2.8125 L 7.296875 -1.640625 C 7.296875 -1.316406 7.328125 -1.046875 7.390625 -0.828125 C 7.460938 -0.609375 7.601562 -0.441406 7.8125 -0.328125 C 8.019531 -0.210938 8.34375 -0.125 8.78125 -0.0625 L 8.78125 0 L 3.765625 0 L 3.765625 -0.0625 C 4.191406 -0.125 4.515625 -0.207031 4.734375 -0.3125 C 4.953125 -0.425781 5.097656 -0.59375 5.171875 -0.8125 C 5.253906 -1.03125 5.296875 -1.304688 5.296875 -1.640625 L 5.296875 -2.515625 C 5.296875 -2.671875 5.335938 -2.78125 5.421875 -2.84375 L 5.390625 -2.84375 C 4.671875 -2.863281 3.984375 -2.867188 3.328125 -2.859375 C 2.671875 -2.859375 2.039062 -2.847656 1.4375 -2.828125 C 1.226562 -2.816406 1.019531 -2.800781 0.8125 -2.78125 C 0.613281 -2.769531 0.484375 -2.753906 0.421875 -2.734375 L 0.390625 -2.734375 L 4.765625 -9.125 L 5 -9.71875 L 7.921875 -11.046875 L 7.921875 -10.984375 C 7.816406 -10.910156 7.6875 -10.796875 7.53125 -10.640625 C 7.375 -10.484375 7.296875 -10.222656 7.296875 -9.859375 L 7.296875 -4.125 C 7.359375 -4.125 7.421875 -4.125 7.484375 -4.125 C 7.546875 -4.132812 7.609375 -4.140625 7.671875 -4.140625 C 7.972656 -4.148438 8.207031 -4.207031 8.375 -4.3125 C 8.539062 -4.414062 8.6875 -4.609375 8.8125 -4.890625 C 8.9375 -5.179688 9.082031 -5.609375 9.25 -6.171875 L 9.328125 -6.140625 L 8.78125 -2.671875 Z M 1.578125 -4.125 C 2.265625 -4.101562 2.90625 -4.085938 3.5 -4.078125 C 4.101562 -4.066406 4.703125 -4.066406 5.296875 -4.078125 L 5.296875 -9.390625 Z M 1.578125 -4.125 "/></g></g></g><g fill="#191919" fill-opacity="1"><g transform="translate(116.206575, 208.220728)"><g><path d="M 25.828125 -8.6875 L 26 -8.609375 L 23.796875 0 L 23.546875 0.921875 L 22.109375 0 L 0.640625 0 L 0.640625 -0.21875 C 1.503906 -0.519531 2.253906 -1.0625 2.890625 -1.84375 C 3.523438 -2.632812 3.84375 -3.597656 3.84375 -4.734375 L 3.84375 -27.140625 C 3.84375 -27.898438 3.523438 -28.425781 2.890625 -28.71875 C 2.253906 -29.007812 1.503906 -29.210938 0.640625 -29.328125 L 0.640625 -29.546875 L 13.25 -29.546875 L 13.25 -29.328125 C 12.175781 -29.210938 11.300781 -29.007812 10.625 -28.71875 C 9.957031 -28.425781 9.625 -27.898438 9.625 -27.140625 L 9.625 -0.671875 L 12.875 -0.671875 C 14.644531 -0.671875 16.148438 -0.851562 17.390625 -1.21875 C 18.628906 -1.582031 19.703125 -2.101562 20.609375 -2.78125 C 21.523438 -3.457031 22.382812 -4.296875 23.1875 -5.296875 C 23.988281 -6.296875 24.867188 -7.425781 25.828125 -8.6875 Z M 25.828125 -8.6875 "/></g></g></g><g fill="#191919" fill-opacity="1"><g transform="translate(144.947788, 208.220728)"><g><path d="M 30 -5.3125 C 30.507812 -4.019531 30.960938 -3.015625 31.359375 -2.296875 C 31.753906 -1.578125 32.164062 -1.0625 32.59375 -0.75 C 33.03125 -0.445312 33.5625 -0.253906 34.1875 -0.171875 L 34.1875 0 L 20.84375 0 L 20.84375 -0.171875 C 21.832031 -0.253906 22.648438 -0.441406 23.296875 -0.734375 C 23.941406 -1.035156 24.347656 -1.519531 24.515625 -2.1875 C 24.679688 -2.863281 24.515625 -3.820312 24.015625 -5.0625 L 23.171875 -7.171875 L 7.046875 -7.171875 L 6.125 -5.0625 C 5.582031 -3.851562 5.378906 -2.925781 5.515625 -2.28125 C 5.660156 -1.632812 6.015625 -1.160156 6.578125 -0.859375 C 7.140625 -0.566406 7.816406 -0.335938 8.609375 -0.171875 L 8.609375 0 L 0.84375 0 L 0.84375 -0.171875 C 1.4375 -0.335938 1.960938 -0.570312 2.421875 -0.875 C 2.890625 -1.1875 3.34375 -1.664062 3.78125 -2.3125 C 4.21875 -2.96875 4.6875 -3.898438 5.1875 -5.109375 L 14.4375 -26.421875 L 14.34375 -27.640625 L 15.15625 -28.109375 L 20.125 -30.765625 C 20.125 -30.648438 20.171875 -30.398438 20.265625 -30.015625 C 20.367188 -29.640625 20.648438 -28.90625 21.109375 -27.8125 Z M 7.34375 -7.9375 L 22.875 -7.9375 L 15.40625 -26.546875 Z M 7.34375 -7.9375 "/></g></g></g><g fill="#191919" fill-opacity="1"><g transform="translate(182.087672, 208.220728)"><g><path d="M 23.171875 -29.546875 L 30.390625 -29.546875 L 30.390625 -29.328125 C 29.828125 -29.273438 29.296875 -29.113281 28.796875 -28.84375 C 28.304688 -28.570312 27.910156 -27.992188 27.609375 -27.109375 C 27.316406 -26.222656 27.171875 -24.828125 27.171875 -22.921875 L 27.171875 -7 C 27.171875 -4.8125 27.195312 -3.101562 27.25 -1.875 C 27.3125 -0.65625 27.359375 0.332031 27.390625 1.09375 L 27.3125 1.1875 L 5.109375 -25.1875 L 5.109375 -7.46875 C 5.109375 -5.550781 5.253906 -4.078125 5.546875 -3.046875 C 5.847656 -2.023438 6.242188 -1.316406 6.734375 -0.921875 C 7.222656 -0.535156 7.75 -0.300781 8.3125 -0.21875 L 8.3125 0 L 1.0625 0 L 1.0625 -0.21875 C 1.644531 -0.300781 2.175781 -0.46875 2.65625 -0.71875 C 3.132812 -0.96875 3.519531 -1.535156 3.8125 -2.421875 C 4.113281 -3.304688 4.265625 -4.707031 4.265625 -6.625 L 4.265625 -26.203125 C 3.554688 -27.046875 2.90625 -27.726562 2.3125 -28.25 C 1.726562 -28.769531 1.097656 -29.203125 0.421875 -29.546875 L 8.90625 -29.546875 C 9.039062 -29.347656 9.210938 -29.113281 9.421875 -28.84375 C 9.640625 -28.570312 9.890625 -28.210938 10.171875 -27.765625 L 26.375 -8.65625 L 26.375 -22.078125 C 26.375 -23.984375 26.222656 -25.445312 25.921875 -26.46875 C 25.628906 -27.5 25.242188 -28.21875 24.765625 -28.625 C 24.296875 -29.039062 23.765625 -29.273438 23.171875 -29.328125 Z M 23.171875 -29.546875 "/></g></g></g><g fill="#191919" fill-opacity="1"><g transform="translate(215.218144, 208.220728)"><g><path d="M 26.75 -8.984375 L 26.921875 -8.90625 L 24.6875 0 L 24.4375 0.921875 L 23 0 L 0.640625 0 L 0.640625 -0.21875 C 1.503906 -0.519531 2.253906 -0.910156 2.890625 -1.390625 C 3.523438 -1.867188 3.84375 -2.488281 3.84375 -3.25 L 3.84375 -27.140625 C 3.84375 -27.898438 3.523438 -28.425781 2.890625 -28.71875 C 2.253906 -29.007812 1.503906 -29.210938 0.640625 -29.328125 L 0.640625 -29.546875 L 23.84375 -29.546875 L 25.40625 -22.109375 L 25.234375 -22.03125 C 24.171875 -23.601562 23.203125 -24.894531 22.328125 -25.90625 C 21.453125 -26.925781 20.457031 -27.671875 19.34375 -28.140625 C 18.238281 -28.617188 16.769531 -28.859375 14.9375 -28.859375 L 9.625 -28.859375 L 9.625 -15.109375 L 13.171875 -15.109375 C 14.910156 -15.109375 16.320312 -15.253906 17.40625 -15.546875 C 18.488281 -15.847656 19.335938 -16.363281 19.953125 -17.09375 C 20.578125 -17.820312 21.054688 -18.832031 21.390625 -20.125 L 21.390625 -9.453125 C 21.054688 -10.742188 20.578125 -11.75 19.953125 -12.46875 C 19.335938 -13.1875 18.488281 -13.691406 17.40625 -13.984375 C 16.320312 -14.285156 14.910156 -14.4375 13.171875 -14.4375 L 9.625 -14.4375 L 9.625 -0.671875 L 15.1875 -0.671875 C 17.019531 -0.671875 18.582031 -0.972656 19.875 -1.578125 C 21.164062 -2.179688 22.347656 -3.09375 23.421875 -4.3125 C 24.492188 -5.539062 25.601562 -7.097656 26.75 -8.984375 Z M 26.75 -8.984375 "/></g></g></g></svg>